<svg xmlns="http://www.w3.org/2000/svg" enable-background="new 0 0 171.961 241.349" viewBox="0 0 171.961 241.349" id="a-grade">
  <path d="M56.108 230.974c0 5.729 4.645 10.375 10.377 10.375 5.728 0 10.374-4.646 10.374-10.375v-49.417h4.113v49.417c0 5.729 4.647 10.375 10.377 10.375 5.729 0 10.375-4.646 10.375-10.375v-68.168H56.108V230.974zM58.007 75.056c0 11.549 9.36 20.912 20.909 20.912 11.551 0 20.91-9.363 20.91-20.912 0-11.549-9.359-20.911-20.91-20.911C67.367 54.144 58.007 63.507 58.007 75.056zM91.113 83.25c-6.267 12.484-20.757 7.292-23.394.188C77.387 87.938 91.113 83.25 91.113 83.25z"></path>
  <path d="M161.32,35.791l-37.577,9.114l1.282,5.288c-0.08,0.261-0.15,0.527-0.201,0.803c-3.217,17.48-11.582,30.846-19.213,39.875
		c-3.81,4.508-7.419,7.91-10.031,10.148c-0.032,0.027-0.06,0.051-0.091,0.078H62.345c-2.782-2.378-6.725-6.09-10.841-11.084
		c-7.38-8.948-15.257-21.895-18.42-38.648l7.156-1.974l2.919,10.585c0.294,1.064,1.396,1.691,2.46,1.396l5.142-1.418
		c1.064-0.293,1.689-1.395,1.396-2.459l-7.178-26.029c-0.293-1.064-1.395-1.689-2.46-1.396l-5.141,1.418
		c-1.064,0.294-1.69,1.395-1.396,2.46L38.9,44.532l-8.361,2.306c-1.535-1.248-3.584-1.844-5.683-1.457
		c-2.527,0.466-4.478,2.236-5.302,4.486l-7.566,2.086L9.069,41.369c-0.293-1.064-1.395-1.69-2.459-1.396l-5.142,1.418
		c-1.064,0.293-1.689,1.395-1.396,2.459L7.25,69.879c0.293,1.064,1.394,1.689,2.46,1.396l5.141-1.418
		c1.064-0.294,1.69-1.395,1.396-2.46l-2.919-10.585l6.233-1.719c3.982,19.739,13.448,34.735,21.966,44.814
		c6.011,7.104,11.564,11.825,14.581,14.173v43.725h45.616V114.08c3.017-2.349,8.569-7.068,14.579-14.172
		c5.144-6.087,10.631-13.976,15.055-23.605l4.956,20.435l31.951-7.75l3.695-9.337l-0.074-0.308L161.32,35.791z M137.787,94.321
		L126.16,46.377l33.687-8.172l10.02,41.298l-3.079,7.783L137.787,94.321z"></path>
  <path d="M138.384 64.799c.114.211.354.347.715.408.361.06.634.041.814-.059.131-.07.259-.193.386-.37.126-.176.212-.744.261-1.706.047-.962.057-1.57.025-1.828.156.033.332-.004.529-.111.109-.061.226-.152.346-.276.471-.49 1.123-1.086 1.958-1.788.833-.701 1.387-1.127 1.658-1.273.025-.014.043-.01.054.01.053.096.464.436 1.234 1.02.771.586 1.475.991 2.111 1.219.635.229 1.145.238 1.527.03.275-.149.464-.374.562-.673.1-.298.073-.585-.077-.861-.082-.151-.177-.256-.283-.315-.107-.06-.363-.148-.768-.268-.808-.238-1.789-.798-2.942-1.681-1.154-.882-2.955-2.476-5.401-4.782-.031-.14-.099-.308-.206-.505-.145-.266-.284-.408-.419-.426-.311-.117-.681-.061-1.109.172-.266.145-.434.456-.503.934-.069.479-.109 2.068-.118 4.772-.008 1.341-.07 2.724-.188 4.151C138.331 63.199 138.276 64.602 138.384 64.799zM140.882 53.984c1.581 1.492 2.514 2.355 2.795 2.586-.202.156-.401.316-.598.482-.805.679-1.311 1.09-1.518 1.236-.308.226-.605.452-.892.68l-.072-5.24C140.642 53.763 140.737 53.848 140.882 53.984zM149.629 54.703c.237.06.464.03.682-.087l.579-.462c.172-.139.59-.367 1.254-.682l.984 2.35c.161.297.322.469.486.518.162.049.402-.014.719-.187.272-.147.43-.287.473-.418.043-.131.038-.244-.014-.34-.053-.095-.088-.187-.109-.273-.029-.114-.297-.637-.804-1.567-.155-.286-.269-.565-.336-.835l1.351-.733c.116-.063.355-.171.716-.321.361-.15.587-.251.677-.3.459-.249.708-.506.747-.768l-.009-.161c-.238-.438-.49-.666-.758-.684-.268-.018-.655.111-1.163.389l-1.976 1.113-.254.127c-.051-.069-.089-.127-.113-.172l-.209-.385c-.052-.096-.182-.387-.389-.875-.211-.484-.376-.838-.496-1.059-.074-.137-.234-.273-.479-.411-.244-.138-.465-.153-.66-.046-.549.298-.598.861-.146 1.691.061.111.161.272.301.482.374.579.619.975.734 1.186.065.121.118.242.158.364l-.25.136-1.064.646c-.434.164-.725.287-.876.369-.171.092-.276.252-.315.481-.039.227-.021.41.055.551C149.224 54.523 149.392 54.643 149.629 54.703zM160.489 65.266c-7.605 1.019-15.095 3.533-22.25 6.25-1.354.514-.423 2.807.826 2.332 7.155-2.716 14.646-5.231 22.25-6.25C162.73 67.408 161.809 65.089 160.489 65.266zM162.822 72.598c-7.605 1.019-15.095 3.533-22.25 6.25-1.354.514-.424 2.807.826 2.332 7.156-2.716 14.646-5.231 22.25-6.25C165.063 74.74 164.141 72.421 162.822 72.598z"></path>
  <polygon points="89.19 46.395 91.145 47.223 101.45 1.957 97.345 0"></polygon>
  <polygon points="129.978 19.338 127.476 15.539 96.495 51.024 97.739 52.746"></polygon>
  <polygon points="68.878 .613 64.329 .723 78.022 45.795 80.14 45.651"></polygon>
</svg>
